<?xml version="1.0" standalone="no"?>
<!DOCTYPE svg PUBLIC "-//W3C//DTD SVG 20010904//EN"
 "http://www.w3.org/TR/2001/REC-SVG-20010904/DTD/svg10.dtd">
<svg version="1.0" xmlns="http://www.w3.org/2000/svg"
 width="512.000000pt" height="512.000000pt" viewBox="0 0 512.000000 512.000000"
 preserveAspectRatio="xMidYMid meet">

<g transform="translate(0.000000,512.000000) scale(0.100000,-0.100000)"
fill="#000000" stroke="none">
<path d="M3742 4368 c-29 -5 -50 -14 -47 -19 4 -5 12 -9 19 -9 6 0 48 -17 92
-39 146 -70 261 -186 334 -336 51 -105 72 -197 74 -321 l1 -102 53 -12 c196
-44 374 -221 427 -427 20 -75 19 -219 -1 -297 -50 -193 -205 -354 -404 -417
l-55 -18 190 0 c217 -1 267 8 378 66 195 103 309 294 310 518 1 167 -48 287
-165 411 -75 79 -152 125 -262 159 l-69 21 2 80 c8 298 -176 580 -455 697
-121 51 -289 69 -422 45z"/>
<path d="M873 3922 c-9 -6 -4 -30 17 -95 48 -142 119 -266 217 -381 50 -57
173 -169 180 -162 2 2 -4 36 -14 77 -15 68 -21 295 -11 454 l3 40 -77 27
c-109 38 -283 60 -315 40z"/>
<path d="M2700 2799 c-140 -176 -274 -345 -298 -375 l-44 -54 161 0 161 0 295
370 c162 203 295 372 295 375 0 3 -71 5 -157 5 l-158 -1 -255 -320z"/>
</g>
</svg>
